<?xml version="1.0" standalone="no"?>
<!DOCTYPE svg PUBLIC "-//W3C//DTD SVG 20010904//EN"
 "http://www.w3.org/TR/2001/REC-SVG-20010904/DTD/svg10.dtd">
<svg version="1.0" xmlns="http://www.w3.org/2000/svg"
 width="1360.000000pt" height="1360.000000pt" viewBox="0 0 1360.000000 1360.000000"
 preserveAspectRatio="xMidYMid meet">
<metadata>
Created by potrace 1.14, written by Peter Selinger 2001-2017
</metadata>
<g transform="translate(0.000000,1360.000000) scale(0.100000,-0.100000)"
fill="#000000" stroke="none">
<path d="M3108 10795 c-2 -2 -41 -6 -88 -9 -47 -4 -98 -8 -115 -11 -16 -3 -43
-7 -60 -9 -46 -6 -157 -25 -185 -31 -14 -3 -36 -8 -50 -10 -14 -2 -40 -8 -57
-14 -18 -5 -33 -8 -33 -5 0 3 -8 0 -19 -5 -10 -6 -33 -13 -50 -16 -33 -6 -261
-79 -296 -95 -66 -29 -115 -48 -115 -43 0 3 -8 -1 -17 -9 -10 -8 -37 -22 -59
-31 -40 -15 -143 -68 -229 -116 -68 -39 -160 -94 -165 -100 -3 -3 -34 -26 -70
-50 -36 -25 -66 -48 -68 -53 -2 -4 -8 -8 -14 -8 -10 0 -137 -104 -206 -167
-112 -103 -258 -256 -313 -328 -13 -17 -26 -32 -30 -35 -3 -3 -37 -48 -76
-100 -97 -131 -217 -326 -288 -467 -33 -65 -63 -120 -66 -123 -21 -19 -193
-464 -224 -580 -1 -3 -7 -25 -14 -50 -7 -25 -14 -49 -16 -55 -9 -40 -18 -74
-26 -95 -4 -14 -11 -37 -13 -53 -3 -15 -7 -35 -10 -45 -3 -9 -7 -28 -10 -42
-2 -14 -11 -61 -21 -105 -9 -44 -18 -91 -20 -105 -2 -14 -8 -52 -14 -85 -5
-33 -12 -80 -15 -105 -3 -25 -10 -79 -15 -120 -11 -81 -18 -148 -28 -305 -9
-127 -9 -721 0 -840 12 -162 24 -289 32 -335 2 -14 7 -47 9 -75 3 -27 8 -61
10 -75 3 -14 8 -43 11 -65 4 -22 8 -49 10 -60 2 -11 6 -35 9 -54 3 -18 8 -42
12 -53 3 -11 7 -30 9 -41 3 -19 8 -44 29 -142 2 -11 9 -40 16 -65 7 -25 14
-52 15 -60 2 -8 4 -16 5 -17 2 -2 4 -7 5 -13 1 -5 3 -11 5 -12 2 -3 4 -15 13
-58 3 -14 12 -41 20 -60 8 -19 16 -38 16 -42 1 -5 1 -9 2 -10 0 -2 2 -10 4
-18 5 -21 26 -79 42 -117 7 -17 13 -33 13 -36 0 -3 5 -18 12 -34 6 -15 12 -30
13 -33 1 -3 9 -23 19 -45 10 -22 19 -45 20 -51 1 -7 8 -19 15 -28 7 -9 11 -16
7 -16 -9 0 169 -344 220 -425 24 -38 47 -77 51 -85 9 -21 56 -84 66 -88 4 -2
7 -9 7 -16 0 -6 13 -27 30 -46 16 -19 29 -40 30 -47 0 -6 3 -13 8 -15 4 -1 25
-25 47 -53 21 -27 42 -52 45 -55 3 -3 23 -27 45 -55 40 -50 255 -269 310 -315
126 -106 311 -245 382 -285 15 -9 57 -34 93 -55 72 -44 271 -143 365 -183 87
-37 295 -107 295 -100 0 3 7 -1 17 -8 9 -8 18 -13 20 -11 1 1 4 2 6 1 4 -1 31
-8 53 -12 11 -3 49 -12 85 -21 126 -31 321 -61 464 -73 178 -15 588 -8 742 13
18 2 48 6 65 9 18 2 44 6 58 9 13 3 42 8 65 11 22 4 55 10 74 15 19 5 37 7 39
5 3 -2 12 0 22 5 9 5 28 11 41 13 30 6 129 34 189 54 25 8 52 16 60 18 8 2 29
9 45 16 17 7 32 13 35 14 27 6 214 85 251 104 8 5 55 30 105 55 49 26 103 56
119 66 17 11 37 23 45 27 14 6 141 87 165 105 142 105 318 265 388 352 12 16
32 40 45 55 12 14 41 54 63 88 23 35 44 63 48 63 6 0 9 -119 15 -656 1 -143 5
-265 9 -270 4 -7 481 -10 1339 -10 l1333 1 2 2180 c1 1199 4 2205 7 2235 3 30
8 78 10 105 3 28 8 61 11 75 3 14 8 39 11 55 17 96 52 210 94 307 39 88 126
240 142 246 4 2 8 8 8 13 0 26 202 229 292 292 75 54 233 138 293 156 22 7 47
15 55 18 24 10 31 11 115 32 71 17 116 25 220 37 43 5 285 5 315 1 14 -3 45
-8 70 -11 25 -4 70 -14 100 -23 30 -8 60 -16 65 -17 23 -4 185 -89 185 -97 0
-5 4 -9 10 -9 21 0 135 -107 181 -170 52 -70 132 -243 142 -305 1 -11 5 -24 9
-30 8 -14 35 -145 42 -205 2 -14 6 -43 9 -65 4 -22 10 -65 13 -95 4 -30 8
-1106 9 -2390 l0 -2335 1338 -1 1338 0 -4 2500 c-2 1376 -7 2521 -10 2546 -4
25 -9 77 -12 115 -3 39 -7 88 -10 110 -2 22 -7 60 -9 85 -12 105 -17 146 -22
170 -3 14 -7 41 -10 60 -3 19 -10 60 -16 90 -6 30 -12 62 -13 70 -1 8 -6 33
-11 55 -9 45 -8 41 -17 75 -4 14 -9 34 -11 45 -1 11 -5 27 -9 35 -3 8 -10 38
-17 65 -11 46 -82 270 -97 305 -3 8 -7 20 -9 25 -1 6 -20 51 -43 101 -151 345
-332 599 -575 807 -26 23 -58 51 -70 61 -52 46 -253 170 -364 226 -66 33 -123
60 -126 60 -3 0 -17 5 -33 12 -15 6 -30 12 -33 13 -3 1 -13 5 -22 8 -10 4 -26
10 -35 14 -10 3 -20 7 -23 8 -3 1 -23 7 -45 14 -106 33 -295 81 -340 86 -5 0
-28 4 -50 8 -22 4 -53 9 -70 12 -16 2 -46 6 -65 9 -217 32 -702 38 -881 11
-19 -3 -54 -7 -79 -10 -25 -2 -56 -7 -70 -10 -14 -3 -43 -7 -65 -10 -22 -2
-58 -9 -80 -14 -22 -5 -51 -12 -65 -15 -220 -42 -604 -183 -732 -269 -16 -10
-28 -15 -28 -11 0 3 -7 1 -15 -6 -17 -14 -67 -44 -105 -62 -14 -7 -27 -16 -30
-19 -3 -4 -19 -15 -37 -25 -31 -19 -147 -98 -167 -116 -24 -19 -56 -44 -92
-73 -21 -16 -58 -48 -81 -71 -24 -23 -43 -39 -43 -37 0 10 -194 -197 -255
-273 -22 -27 -43 -50 -47 -52 -5 -2 -8 -10 -8 -18 0 -9 -5 -12 -10 -9 -6 4 -8
9 -6 13 2 4 7 57 11 117 3 61 8 124 10 140 3 17 7 59 10 95 11 145 17 201 31
325 2 22 6 63 8 90 2 28 7 76 11 108 l7 58 -1446 -2 -1446 -2 5 -66 c8 -82 12
-108 20 -121 3 -5 1 -10 -5 -10 -6 0 -8 -5 -4 -11 8 -14 17 -95 18 -166 1 -29
4 -53 7 -53 3 0 6 -6 6 -12 0 -19 14 -177 18 -218 2 -19 7 -80 10 -134 3 -55
8 -103 11 -107 2 -4 0 -10 -6 -14 -5 -3 -10 -1 -10 5 0 10 -23 43 -102 145
-91 117 -288 302 -423 395 -20 14 -42 30 -49 35 -13 11 -16 13 -116 73 -94 57
-134 79 -240 132 -98 49 -318 140 -339 140 -6 0 -19 4 -29 9 -34 19 -275 82
-367 97 -55 9 -63 10 -70 14 -3 1 -13 3 -22 4 -10 1 -36 5 -58 9 -22 3 -65 9
-95 13 -30 3 -73 8 -95 11 -46 5 -552 13 -557 8z m1322 -1999 c35 -5 68 -10
125 -21 185 -33 404 -133 565 -258 81 -63 250 -234 250 -252 0 -3 9 -16 21
-28 23 -25 97 -151 127 -217 53 -117 71 -160 66 -160 -3 0 0 -9 6 -21 26 -48
90 -312 106 -439 3 -25 9 -72 14 -105 8 -66 5 -975 -3 -1015 -4 -14 -8 -41
-11 -60 -3 -19 -8 -53 -11 -75 -19 -129 -86 -366 -137 -485 -30 -68 -88 -182
-109 -212 -11 -14 -19 -31 -19 -37 0 -6 -4 -11 -8 -11 -4 0 -16 -13 -25 -30
-43 -73 -274 -300 -305 -300 -6 0 -12 -3 -14 -7 -1 -5 -23 -21 -48 -37 -25
-16 -57 -37 -71 -47 -15 -10 -39 -21 -53 -25 -14 -3 -26 -10 -26 -14 0 -5 -15
-12 -32 -15 -18 -4 -37 -11 -43 -15 -23 -17 -223 -74 -295 -83 -19 -3 -35 -6
-35 -7 0 -5 -146 -13 -250 -13 -149 -1 -286 13 -390 37 -82 20 -233 73 -249
87 -6 5 -15 9 -22 9 -7 0 -45 19 -86 42 -66 38 -109 67 -192 131 -43 32 -186
172 -186 182 0 4 -8 15 -18 24 -31 28 -110 154 -151 242 -50 107 -91 209 -84
209 3 0 0 7 -7 15 -7 8 -9 15 -5 15 4 0 3 6 -3 13 -5 6 -13 26 -16 42 -3 17
-12 57 -21 90 -22 84 -23 90 -40 185 -13 75 -18 114 -30 210 -19 148 -26 634
-11 805 12 131 23 231 31 275 3 14 8 41 11 60 3 19 10 52 15 73 6 21 12 51 14
67 2 16 6 34 10 40 3 6 9 23 11 38 6 35 41 151 54 177 5 11 21 49 36 85 64
158 163 307 284 430 78 79 234 205 270 218 8 3 22 11 32 19 9 8 23 15 31 17 8
1 21 7 28 13 24 19 191 81 274 102 92 23 121 28 189 35 27 3 50 7 52 9 5 5
342 -1 384 -7z"/>
</g>
</svg>
