<?xml version="1.0" standalone="no"?>
<!DOCTYPE svg PUBLIC "-//W3C//DTD SVG 20010904//EN"
 "http://www.w3.org/TR/2001/REC-SVG-20010904/DTD/svg10.dtd">
<svg version="1.0" xmlns="http://www.w3.org/2000/svg"
 width="1632.000000pt" height="1632.000000pt" viewBox="0 0 1632.000000 1632.000000"
 preserveAspectRatio="xMidYMid meet">
<metadata>
Created by potrace 1.14, written by Peter Selinger 2001-2017
</metadata>
<g transform="translate(0.000000,1632.000000) scale(0.100000,-0.100000)"
fill="#000000" stroke="none">
<path d="M3758 12955 c-2 -2 -46 -6 -98 -9 -52 -3 -104 -8 -115 -10 -11 -2
-46 -7 -79 -11 -32 -3 -68 -8 -80 -10 -11 -2 -39 -7 -61 -10 -22 -4 -51 -8
-65 -10 -14 -2 -25 -4 -25 -5 0 -1 -11 -3 -25 -5 -47 -7 -78 -13 -98 -19 -11
-4 -29 -8 -39 -10 -97 -20 -415 -116 -424 -129 -3 -5 -8 -8 -10 -7 -8 3 -65
-13 -76 -23 -7 -5 -13 -7 -13 -3 0 4 -11 -1 -24 -10 -14 -8 -27 -15 -30 -15
-22 1 -426 -197 -426 -210 0 -4 -14 -10 -30 -14 -17 -4 -30 -11 -30 -16 0 -5
-8 -12 -17 -16 -41 -15 -345 -226 -351 -244 -2 -5 -8 -9 -13 -9 -6 0 -21 -10
-34 -22 -13 -13 -34 -31 -46 -41 -63 -48 -251 -227 -345 -329 -120 -130 -394
-488 -394 -514 0 -2 -15 -26 -32 -52 -46 -67 -57 -85 -65 -102 -4 -8 -16 -31
-28 -50 -46 -74 -144 -268 -138 -274 4 -3 2 -6 -4 -6 -5 0 -20 -24 -32 -52
-13 -29 -32 -73 -43 -98 -45 -100 -57 -130 -50 -130 4 0 2 -4 -3 -8 -25 -17
-186 -498 -221 -662 -3 -14 -7 -29 -8 -35 -1 -5 -5 -19 -9 -30 -3 -11 -8 -31
-11 -45 -2 -14 -11 -54 -19 -90 -21 -91 -59 -297 -63 -345 -1 -22 -3 -40 -4
-40 -5 0 -16 -76 -25 -170 -4 -33 -8 -71 -11 -85 -2 -14 -6 -52 -9 -85 -3 -33
-8 -82 -10 -110 -14 -128 -19 -297 -19 -620 0 -373 6 -525 29 -750 4 -33 9
-80 11 -105 2 -25 6 -58 9 -75 2 -16 7 -52 10 -80 2 -27 7 -61 10 -75 3 -14 8
-47 11 -75 4 -27 8 -53 10 -57 2 -3 7 -28 10 -54 3 -27 8 -53 11 -58 4 -5 7
-23 9 -40 1 -17 16 -92 34 -166 17 -74 33 -143 35 -153 2 -9 6 -21 9 -25 3 -5
7 -19 9 -33 17 -89 144 -471 192 -576 8 -17 15 -33 15 -36 0 -3 17 -40 37 -84
21 -43 38 -80 38 -83 1 -10 126 -256 160 -315 19 -33 44 -79 56 -102 13 -24
26 -43 31 -43 4 0 8 -5 8 -11 0 -5 18 -37 40 -69 22 -32 40 -62 40 -65 0 -3 5
-11 10 -18 6 -7 51 -68 101 -135 95 -131 96 -132 138 -180 14 -16 46 -54 71
-83 58 -70 303 -314 360 -359 24 -19 53 -44 64 -55 12 -11 53 -44 91 -72 39
-29 76 -57 82 -63 7 -6 57 -40 110 -75 54 -36 103 -70 110 -75 7 -6 17 -10 23
-10 5 0 10 -3 10 -8 0 -4 15 -13 33 -21 17 -8 34 -17 37 -20 34 -40 563 -280
660 -299 3 -1 38 -13 77 -26 106 -36 312 -88 323 -81 6 4 10 1 10 -6 0 -7 3
-9 7 -6 3 4 13 1 21 -6 13 -10 14 -9 7 3 -8 13 -6 13 8 1 9 -7 23 -11 31 -8 8
3 17 3 20 -1 7 -7 21 -9 86 -17 25 -3 56 -7 70 -10 14 -4 50 -8 80 -11 30 -2
66 -7 80 -10 110 -26 717 -25 915 2 22 2 60 7 85 9 25 2 45 5 45 6 0 1 11 2
25 3 14 1 31 5 37 9 7 5 13 6 13 4 0 -3 33 2 73 9 39 8 86 17 102 19 17 3 38
8 47 11 20 6 56 14 83 19 19 4 183 50 215 61 8 3 15 5 15 4 0 -1 32 10 70 25
39 15 75 28 80 29 51 9 518 229 545 256 3 3 21 14 40 24 19 11 75 46 124 78
49 32 93 58 98 58 4 0 8 4 8 8 0 4 15 16 33 27 17 10 37 24 43 29 6 6 29 25
50 41 21 17 46 38 56 47 10 10 21 18 24 18 14 0 262 260 314 329 30 40 61 79
68 86 6 8 12 16 12 20 0 3 11 21 25 39 14 18 25 39 25 46 0 7 3 10 7 6 4 -3 7
-80 8 -170 1 -89 5 -168 9 -174 3 -6 2 -13 -3 -17 -7 -4 -7 -15 -1 -30 5 -14
6 -25 1 -25 -4 0 -5 -21 -1 -48 5 -26 4 -48 -1 -50 -5 -2 -6 -8 -3 -13 3 -6 7
-141 9 -301 2 -176 7 -294 14 -301 6 -6 536 -9 1563 -9 854 0 1573 1 1598 1
l46 1 0 2588 c0 2335 3 2759 18 2828 2 12 7 45 11 74 4 29 9 62 11 74 3 12 7
32 10 46 9 48 47 176 71 245 28 77 100 236 111 245 4 3 18 26 32 53 13 26 28
47 32 47 5 0 8 5 8 10 0 6 4 16 10 23 5 7 31 39 57 72 55 71 199 216 263 265
25 19 46 38 48 42 2 5 7 8 12 8 4 0 39 20 77 45 37 25 74 45 81 45 6 0 12 5
12 11 0 5 4 8 9 4 5 -3 16 1 24 9 8 8 23 16 33 18 10 2 22 7 25 11 3 5 12 10
20 11 8 2 28 8 44 15 69 27 84 32 170 54 50 14 93 25 98 26 4 0 8 1 10 2 48
14 198 31 299 33 38 0 68 4 68 7 0 8 32 5 47 -4 6 -4 14 -3 18 3 4 6 11 7 17
4 6 -4 47 -8 91 -10 44 -1 90 -5 102 -8 12 -3 39 -8 60 -12 21 -3 49 -10 62
-15 13 -5 23 -7 23 -4 0 7 160 -54 213 -82 29 -15 62 -36 75 -47 12 -11 22
-16 22 -12 0 11 122 -93 160 -138 19 -22 43 -48 53 -58 9 -10 17 -22 17 -28 0
-5 5 -10 10 -10 6 0 10 -4 10 -10 0 -5 16 -34 35 -64 19 -29 31 -56 28 -60 -4
-3 -1 -6 5 -6 7 0 12 -9 12 -19 0 -11 4 -23 10 -26 6 -3 10 -15 10 -26 0 -10
5 -19 10 -19 6 0 9 -3 8 -7 -1 -5 8 -42 21 -83 13 -41 25 -84 28 -95 2 -11 6
-29 8 -40 3 -11 7 -31 11 -45 3 -14 7 -37 10 -52 2 -16 7 -43 10 -60 7 -41 14
-98 20 -163 2 -27 7 -72 10 -100 3 -27 6 -1303 7 -2834 l2 -2784 1597 1 c878
0 1600 2 1605 5 6 4 10 5792 3 5792 -1 0 -3 38 -5 85 -5 103 -22 375 -25 375
-1 0 -3 25 -6 55 -9 89 -12 115 -13 115 -1 0 -4 23 -6 50 -2 28 -6 64 -10 80
-4 17 -8 46 -10 65 -2 19 -4 35 -5 35 -1 0 -3 14 -5 31 -5 45 -14 99 -19 115
-3 8 -7 30 -10 49 -9 53 -16 93 -22 112 -3 10 -7 28 -10 40 -4 25 -10 52 -26
113 -5 22 -10 50 -11 63 -1 12 -6 22 -11 22 -4 0 -6 6 -3 14 3 7 2 17 -3 22
-5 5 -12 24 -15 43 -3 19 -8 38 -11 43 -3 4 -7 16 -9 25 -4 24 -79 240 -99
284 -8 20 -12 39 -9 43 4 3 1 6 -5 6 -7 0 -12 5 -12 12 0 38 -166 359 -257
498 -157 238 -349 448 -558 609 -22 17 -45 35 -52 41 -7 5 -15 10 -18 10 -4 0
-13 6 -20 13 -29 25 -44 37 -49 37 -2 0 -40 22 -84 49 -101 63 -278 152 -286
144 -3 -4 -6 -1 -6 5 0 7 -4 12 -9 12 -5 0 -26 8 -47 17 -22 9 -41 17 -44 18
-3 1 -12 5 -20 8 -97 40 -422 133 -525 151 -16 3 -42 7 -56 10 -14 3 -41 8
-60 10 -19 3 -34 5 -34 6 0 1 -16 3 -35 5 -19 2 -47 5 -62 7 -16 1 -28 5 -28
8 0 3 -24 6 -53 6 -28 1 -90 5 -137 9 -47 4 -103 9 -125 11 -58 4 -469 5 -540
0 -144 -9 -316 -28 -390 -42 -11 -2 -40 -7 -65 -10 -25 -3 -48 -8 -52 -10 -4
-3 -24 -7 -46 -10 -21 -3 -92 -19 -158 -35 -150 -37 -134 -32 -234 -65 -47
-15 -87 -28 -90 -29 -11 -3 -47 -18 -77 -31 -17 -8 -35 -14 -41 -14 -8 0 -78
-30 -192 -83 -25 -12 -47 -21 -50 -22 -10 -2 -161 -84 -210 -114 -19 -12 -43
-24 -52 -27 -10 -4 -18 -10 -18 -15 0 -5 -5 -9 -10 -9 -10 0 -140 -78 -150
-90 -3 -4 -27 -21 -55 -40 -27 -19 -52 -36 -55 -40 -3 -3 -21 -17 -40 -30 -39
-27 -50 -37 -165 -137 -130 -115 -332 -322 -358 -369 -4 -8 -18 -25 -30 -37
-12 -13 -31 -35 -41 -50 -17 -24 -45 -40 -32 -18 3 4 8 46 11 92 8 121 20 288
30 384 3 33 7 85 10 115 2 30 5 55 5 55 1 0 3 20 5 45 4 63 15 180 20 210 7
43 17 143 19 185 l1 40 -1550 -2 c-852 -1 -1632 -3 -1733 -4 l-183 -2 6 -61
c4 -34 8 -74 10 -91 4 -33 14 -118 20 -180 3 -22 7 -69 10 -105 2 -36 7 -81
10 -100 6 -45 16 -151 19 -216 1 -28 6 -56 10 -62 4 -7 2 -12 -5 -12 -8 0 -8
-4 -2 -12 6 -7 10 -31 11 -53 2 -96 9 -183 16 -193 5 -8 2 -10 -8 -6 -9 3 -16
10 -16 14 0 4 -28 46 -63 92 -78 105 -78 105 -153 184 -33 35 -59 64 -57 64 3
0 -108 104 -147 137 -14 12 -36 31 -50 43 -14 12 -38 31 -53 43 -16 12 -41 31
-55 43 -45 36 -240 164 -250 164 -4 0 -17 8 -28 18 -11 9 -36 25 -55 36 -81
44 -279 143 -329 164 -30 13 -64 28 -75 32 -63 28 -221 87 -255 95 -8 2 -46
14 -85 25 -38 12 -88 26 -110 32 -22 5 -47 11 -55 14 -85 22 -207 47 -295 59
-27 3 -58 9 -68 11 -10 3 -34 7 -55 9 -101 9 -179 18 -202 22 -29 5 -597 12
-602 8z m1452 -2396 c0 -8 4 -8 13 0 8 6 16 9 18 7 2 -2 31 -7 64 -11 81 -9
106 -13 135 -19 14 -4 39 -9 55 -12 33 -6 132 -32 155 -41 8 -4 17 -7 20 -8
53 -13 306 -128 320 -145 3 -3 28 -20 55 -38 28 -17 62 -42 77 -54 14 -13 39
-32 55 -43 31 -22 183 -173 223 -221 58 -70 90 -114 101 -138 7 -14 16 -26 21
-26 4 0 8 -7 8 -15 0 -8 5 -15 10 -15 6 0 10 -4 10 -9 0 -5 16 -37 35 -70 19
-34 35 -65 36 -69 5 -17 51 -119 64 -143 8 -14 12 -28 9 -31 -2 -3 4 -25 14
-49 22 -53 81 -263 84 -301 1 -16 5 -28 8 -28 3 0 7 -12 8 -27 1 -16 5 -39 8
-53 3 -14 7 -38 9 -55 2 -16 7 -48 10 -70 25 -153 27 -220 28 -705 0 -414 -3
-535 -19 -650 -2 -14 -6 -41 -8 -60 -3 -19 -7 -48 -10 -65 -4 -16 -9 -45 -12
-64 -6 -33 -9 -50 -21 -101 -3 -14 -6 -32 -8 -40 -3 -21 -23 -94 -47 -168 -11
-34 -21 -68 -22 -75 -2 -6 -8 -25 -14 -40 -7 -16 -12 -30 -12 -31 0 -2 -7 -20
-15 -40 -8 -20 -15 -38 -15 -41 1 -15 -121 -241 -168 -310 -78 -115 -192 -242
-285 -318 -22 -17 -51 -42 -64 -54 -12 -12 -23 -19 -23 -15 0 4 -4 2 -8 -4
-26 -39 -365 -223 -422 -229 -6 -1 -77 -24 -100 -32 -8 -3 -24 -7 -35 -9 -30
-5 -60 -12 -60 -14 0 -2 -34 -9 -75 -15 -19 -2 -46 -7 -60 -10 -48 -10 -186
-19 -300 -19 -187 0 -347 17 -475 51 -33 8 -71 17 -84 20 -14 2 -29 7 -35 11
-6 3 -20 8 -30 9 -11 2 -33 10 -49 18 -17 8 -34 15 -38 15 -24 0 -269 129
-297 157 -7 7 -16 13 -20 13 -4 0 -20 11 -36 25 -16 14 -32 25 -35 25 -28 1
-331 316 -331 345 0 3 -11 21 -24 38 -21 28 -62 101 -101 177 -17 33 -39 84
-63 145 -10 28 -23 59 -27 70 -10 25 -10 24 -20 60 -4 17 -10 35 -14 40 -3 6
-7 19 -8 30 -2 11 -6 27 -10 35 -7 18 -6 15 -32 125 -5 22 -12 51 -15 65 -15
61 -45 246 -51 305 -2 22 -6 63 -9 90 -3 28 -9 88 -13 135 -8 105 -12 731 -5
745 3 5 7 34 8 65 1 30 5 80 9 110 3 30 8 75 11 100 5 44 29 190 39 240 3 14
7 36 10 50 3 14 9 40 14 58 5 18 10 33 10 35 -1 9 35 141 48 177 4 8 8 23 10
33 18 96 216 487 246 487 4 0 6 4 3 8 -3 5 8 23 24 41 17 18 30 34 30 37 0 2
8 12 18 22 9 11 38 41 63 68 49 53 138 134 190 174 74 57 169 121 169 114 0
-4 8 0 18 8 33 30 292 146 292 132 0 -4 6 -2 13 3 6 6 26 14 42 18 17 5 37 10
45 12 8 3 23 5 33 6 9 1 17 4 17 7 0 3 8 6 18 6 9 1 49 7 87 13 39 7 92 15
119 17 27 2 51 6 53 8 2 2 78 4 168 4 114 1 165 -2 165 -9z"/>
</g>
</svg>
