<svg width="536" height="746" viewBox="0 0 536 746" fill="none" xmlns="http://www.w3.org/2000/svg">
<rect y="59" width="499" height="687" rx="20" fill="#FB764C"/>
<mask id="mask0_1204_2" style="mask-type:alpha" maskUnits="userSpaceOnUse" x="0" y="0" width="536" height="746">
<path d="M0 20C0 8.95429 8.9543 0 20 0H516C527.046 0 536 8.95431 536 20V726C536 737.046 527.046 746 516 746H20C8.95432 746 0 737.046 0 726V20Z" fill="#FB764C"/>
</mask>
<g mask="url(#mask0_1204_2)">
<rect width="155.653" height="191.649" transform="matrix(-1 0 0 1 229.655 464.471)" fill="#FDEA6B"/>
<path fill-rule="evenodd" clip-rule="evenodd" d="M275.055 277.018C258.276 264.243 216.153 258.499 198.245 270.799C180.558 283.151 178.63 303.125 170.388 321.5C162.611 317.834 149.769 323.085 147.514 330.3C144.718 333.702 144.592 343.263 142.664 347.837C58.7598 361.191 46.0215 426.595 35.9225 500.847C22.5621 576.194 -7.76703 651.377 5.39954 728.91C3.68396 731.392 2.33136 733.805 1.08069 736.67C-1.91614 741.768 1.94391 748.985 7.98853 748.706C15.8126 748.019 23.5593 747.081 31.4201 746.788C53.2113 746.031 75.0224 746.122 96.8219 746.398L99.7945 746.437C209.657 747.805 319.514 750.499 429.382 751.214C433.368 751.22 435.319 747.646 434.787 744.12C433.715 737.021 432.721 729.92 431.683 722.818C457.669 729.68 485.295 731.407 511.209 723.539C513.021 721.693 506.985 722.694 506.027 722.413C529.875 706.12 522.753 671.795 520.641 647.072C507.505 562.359 502.874 468.629 452.121 396.342C430.164 366.841 397.974 343.485 360.985 338.229L359.959 338.089C349.144 336.647 337.09 336.182 327.633 330.3C316.998 321.81 312.466 306.125 301.277 305.978C297.582 305.929 292.556 310.603 287.147 313.776C286.744 306.796 282.982 300.905 282.151 295.493L282.084 295.031C281.217 288.721 282.404 283.044 275.055 277.018ZM94.7366 503.085C118.316 486.707 179.227 494.936 180.621 495.854C183.691 497.873 185.013 498.051 186.674 500.673C188.313 500.891 189.951 501.116 191.588 501.349C194.872 502.421 192.438 506.459 188.646 505.019C190.927 514.855 184.213 521.851 181.541 531.576C180.673 534.733 181.509 540.412 181.541 543.638C181.282 547.752 176.733 552.611 177.491 556.738C180.186 571.41 194.812 585.722 188.646 599.951C184.561 607.988 172.274 612.085 164.106 614.818C147.182 621.312 117.693 614.573 107.86 599.951C102.615 592.152 96.5383 572.479 93.4109 566.377L92.7178 556.697C91.0084 532.634 89.4878 506.731 94.7366 503.085Z" fill="white"/>
<path fill-rule="evenodd" clip-rule="evenodd" d="M302.149 306.022L295.401 310.162L256.21 329.532C248.613 331.659 244.814 334.208 244.814 337.18V367.435C244.814 371.484 237.684 380.66 223.425 394.963L210.251 381.832L210.545 380.113C211.799 372.705 212.426 367.75 212.426 365.247C212.426 362.555 199.537 352.337 173.76 334.592L162.483 323.977L163.686 320.321C156.733 320.65 149.192 324.931 147.514 330.3C144.718 333.702 144.592 343.263 142.664 347.837C58.7597 361.191 46.0215 426.595 35.9225 500.847C22.5621 576.194 -7.76709 651.377 5.39954 728.91C3.68396 731.392 2.33136 733.805 1.08069 736.67C-1.91614 741.768 1.94391 748.985 7.98853 748.706C15.8126 748.019 23.5593 747.081 31.4201 746.788C53.2113 746.031 75.0224 746.121 96.8219 746.398L99.7945 746.437C209.657 747.805 319.514 750.499 429.382 751.214C433.368 751.22 435.319 747.646 434.787 744.12C433.715 737.021 432.721 729.919 431.683 722.818C457.669 729.68 485.295 731.407 511.209 723.539C513.021 721.693 506.985 722.694 506.027 722.413C529.875 706.12 522.753 671.795 520.641 647.072C507.505 562.359 502.874 468.629 452.121 396.342C430.164 366.841 397.974 343.485 360.985 338.229L359.959 338.089L358.925 337.954C348.381 336.612 336.79 335.996 327.633 330.3C317.279 322.035 312.709 306.948 302.149 306.022ZM208.243 483.606C212.087 483.606 219.959 489.574 231.86 501.511L232.908 501.996C247.294 508.677 256.824 514.472 261.499 519.382L261.666 519.56C266.388 524.625 275.74 538.095 289.721 559.969L309.967 571.94H317.627L323.081 611.495L309.967 639.739L280.261 629.735L231.86 616.979L204.085 588.806L188.418 583.547C190.319 589.037 191.008 594.501 188.646 599.951C184.561 607.988 172.274 612.086 164.106 614.818C147.182 621.312 117.693 614.573 107.86 599.951C102.615 592.152 96.5383 572.479 93.4109 566.377L92.514 553.802C90.8976 530.598 89.6978 506.585 94.7366 503.085C118.316 486.707 179.227 494.936 180.621 495.854C183.691 497.873 185.013 498.051 186.674 500.673L187.533 500.788L182.7 494.233L184.411 493.32C196.624 486.844 204.568 483.606 208.243 483.606ZM188.646 505.019C190.83 514.436 184.77 521.249 181.904 530.346L189.227 516.33L189.227 505.2C189.037 505.154 188.843 505.094 188.646 505.019Z" fill="#00BBBA"/>
<path fill-rule="evenodd" clip-rule="evenodd" d="M305.385 304.559C303.757 303.118 301.348 304.929 302.383 306.876C304.707 311.252 307.092 315.398 310.212 319.266C312.103 321.612 314.13 323.83 316.183 326.024C310.913 330.582 306.394 336.241 302.126 341.544C296.669 348.328 291.509 355.398 285.383 361.605C279.341 367.726 272.66 372.005 264.583 374.859L262.952 375.425C254.837 378.274 246.164 382.12 241.591 389.802C240.689 391.317 242.505 393.188 244.031 392.243C251.979 387.323 261.318 386.333 269.969 383.082C278.326 379.941 285.611 375.108 292.048 368.939C298.474 362.781 303.869 355.774 309.497 348.915C315.063 342.134 321.055 336.341 327.638 330.603C337.797 337.436 349.392 340.41 361.183 343.33L362.47 343.648C374.275 346.571 386.017 349.965 397.092 355.054C406.857 359.54 416.461 364.897 424.415 372.197C432.859 379.945 439.43 389.84 445.445 399.517C458.899 421.166 468.358 444.884 476.685 468.891C485.346 493.861 492.59 519.331 498.438 545.104C501.412 558.213 503.828 571.416 505.814 584.711C506.769 591.114 507.618 597.531 508.364 603.962C509.16 610.83 509.343 617.895 511.45 624.498C512.353 627.328 514.486 628.502 516.621 628.402L517.055 633.825C517.63 641.054 518.166 648.286 518.347 655.561C518.647 667.656 518.511 679.717 517.641 691.787L517.517 693.433C516.834 702.242 515.306 712.14 508.681 718.59C501.82 725.27 491.269 727.371 482.021 727.491C460.483 727.772 439.751 717.597 420.692 708.67C401.063 699.477 381.971 689.273 363.336 678.206C353.846 672.57 344.459 666.747 335.191 660.753C330.643 657.811 326.127 654.82 321.645 651.78C319.078 650.039 316.645 648.13 314.032 646.585C315.312 645.393 315.884 643.519 314.811 641.882C322.366 635.325 325.511 623.625 325.878 614.157C326.175 606.515 325.05 598.894 324.163 591.324C323.715 587.507 323.161 583.696 322.587 579.896C322.36 578.395 322.187 576.789 321.922 575.204C342.322 586.413 363.293 596.395 384.82 605.263C395.855 609.809 407.03 613.896 418.36 617.641L420.657 618.397C431.392 621.91 442.384 625.229 453.482 627.238C454.076 627.345 454.558 626.469 453.924 626.19C443.109 621.419 431.919 617.394 420.941 613L419.137 612.265C419.344 612.253 419.559 612.225 419.783 612.171C426.221 610.618 432.609 608.223 438.924 606.208C444.784 604.337 451.368 603.162 456.846 600.337C457.268 600.12 457.032 599.534 456.621 599.506C450.464 599.079 443.781 600.873 437.744 601.929L435.477 602.326C431.678 602.996 427.795 603.716 424.014 604.655C423.878 603.389 423.17 602.117 422.163 601.372C411.086 593.169 412.211 576.603 411.026 564.387L410.148 555.318C408.603 539.446 406.968 523.576 404.484 507.822C404.352 506.981 403.05 507.222 403.045 508.016C402.917 527.544 404.391 546.983 405.13 566.481L405.244 569.679C405.653 581.71 405.973 594.203 413.552 603.46C412.492 602.841 411.059 602.841 410.201 603.862C409.146 605.117 408.537 606.526 408.556 607.909C401.708 605.039 394.89 602.093 388.105 599.088C366.291 589.425 344.934 578.612 324.143 566.912C321.905 565.653 319.779 566.642 318.672 568.303L318.512 568.28C318.486 568.276 318.459 568.273 318.431 568.273L318.272 568.266C318.266 568.266 318.26 568.267 318.255 568.267C315.328 566.659 311.341 567.804 308.829 570.149C308.755 570.22 308.692 570.296 308.626 570.371C305.446 568.944 302.477 567.017 299.783 564.575C294.269 559.579 289.599 553.4 285.527 547.205C278.03 535.794 271.661 523.106 261.532 513.713C253.303 506.081 243.101 501.33 232.397 498.348C232.442 498.035 232.323 497.702 232.107 497.48C231.557 496.917 231.165 496.722 230.454 497.064C230.398 497.092 230.364 497.13 230.341 497.17L229.296 495.386C228.726 494.418 228.141 493.443 227.938 493.187C226.723 491.657 225.472 490.139 224.202 488.652C222.05 486.136 219.597 483.652 216.756 481.907C210.537 478.087 203.999 480.249 197.605 482.337C193.741 483.599 189.891 484.902 186.034 486.183L185.636 486.313C182.76 487.236 179.395 488.044 178.109 491.091C177.6 492.296 177.521 493.548 177.759 494.761C150.445 487.816 120.109 491.007 93.4553 499.16C92.4323 499.472 91.4107 500.314 91.1953 501.419C88.1414 517.077 86.7812 533.136 88.1631 549.062C89.3553 562.809 92.4018 576.281 98.1425 588.866L98.4689 589.577C103.864 601.24 112.415 615.619 125.474 619.274C133.359 621.482 142.081 620.18 150.123 619.776C157.939 619.382 165.928 619.325 173.67 618.097C180.565 617.002 186.606 613.912 190.867 608.307C194.543 603.471 196.479 597.626 198.065 591.812C198.791 592.043 199.512 592.289 200.222 592.567C203.217 593.736 205.755 595.624 208.05 597.846C212.895 602.538 216.654 608.236 221.724 612.713C226.313 616.767 231.543 619.919 237.153 622.342C248.777 627.364 261.246 629.371 273.542 632.032L274.399 632.219C283.656 634.249 293.103 636.743 301.274 641.561C301.433 642.98 302.08 644.314 303.116 645.188C301.675 646.542 301.064 648.684 302.33 650.695C305.868 656.307 311.96 659.5 317.43 663.09L317.786 663.324C323.166 666.891 328.594 670.387 334.065 673.811C345.189 680.775 356.545 687.354 368.061 693.645C386.584 703.762 405.504 713.306 424.767 721.963C423.611 727.65 424.033 733.514 423.164 739.24L423.031 740.056C422.66 742.181 423.161 743.959 424.625 745.347L424.78 745.489L424.777 745.47L424.914 745.596L424.96 745.634L424.945 745.622C425.114 745.777 425.288 745.921 425.465 746.044L425.691 746.189C427.101 747.046 428.916 747.036 430.36 746.28L430.524 746.189L430.802 746.03C432.709 744.933 434.024 742.216 433.233 740.056C431.288 734.75 430.554 729.087 428.758 723.745L430.183 724.382L432.06 725.2C452.369 733.981 474.927 741.375 497.054 735.389C506.831 732.743 515.969 727.147 520.861 718.026C525.675 709.052 526.355 698.63 526.611 688.647C526.926 676.325 526.265 663.815 524.64 651.599C523.549 643.399 522.23 635.044 520.195 626.929C521.242 626.005 522.011 624.681 522.214 623.04C523.175 615.289 521.494 607.231 520.465 599.52C519.459 591.992 518.349 584.478 517.093 576.987C514.557 561.86 511.61 546.765 508.18 531.815C502.074 505.208 494.012 479.073 484.306 453.564L483.456 451.342C474.487 428.025 464.102 405.206 449.642 384.722C442.725 374.923 435.412 366.037 425.638 358.976C416.481 352.359 406.152 347.595 395.493 343.954C384.822 340.31 373.855 337.868 362.693 336.349C351.358 334.806 339.393 333.86 328.819 329.212C330.156 326.814 329.008 323.577 326.757 322.09C319.181 317.085 312.175 310.575 305.385 304.559ZM62.8619 522.183C62.5444 521.701 61.7906 522.006 61.93 522.576C65.6147 537.669 69.0737 552.793 71.3324 568.174C75.4096 595.936 74.6596 624.06 74.3263 652.027L74.3095 653.474C74.1382 668.538 73.9003 683.603 73.4021 698.661C73.1506 706.272 72.653 713.957 72.9236 721.571C73.071 725.701 74.1722 729.608 74.5623 733.69C74.9042 737.258 74.5997 740.882 74.4291 744.455C74.3149 746.831 77.8222 746.73 78.0608 744.455L78.3658 741.513C78.7621 737.79 79.252 734.089 80.4724 730.525C81.9398 726.239 82.644 722.03 83.1531 717.529C83.9329 710.633 84.2797 703.668 84.5807 696.723L84.7865 691.92C86.0432 662.898 85.9992 633.739 83.9646 604.748L83.8159 602.677C81.8012 575.273 78.3055 545.663 62.8619 522.183ZM141.405 349.464C142.368 349.068 142.031 347.613 140.965 347.867L139.027 348.329C124.824 351.73 110.88 355.415 97.624 361.744C84.3596 368.077 73.1295 377.531 64.2063 389.156C46.8601 411.753 39.6519 439.216 33.9614 466.653C27.6374 497.141 21.8796 527.74 15.5005 558.218L14.316 563.896C8.41339 592.283 2.84045 620.685 -1.26581 649.409L-1.56079 651.492C-5.70166 681.028 -8.19238 711.588 -3.67401 741.201C-2.78015 747.06 6.97089 745.601 6.5896 739.813C5.48846 723.079 4.70001 706.433 5.46191 689.661C6.22455 672.887 7.7981 656.186 10.1437 639.558C12.1177 625.564 15.0603 611.745 17.6644 597.863L18.0725 595.671C20.2531 583.864 22.5009 572.068 24.7439 560.272L28.0958 542.61C33.1195 516.165 38.2415 489.696 44.0292 463.417L44.3726 461.871C50.0365 436.588 58.3867 410.104 75.3759 390.027C92.6166 369.652 117.297 359.391 141.405 349.464ZM204.052 617.634C203.637 616.71 202.187 616.812 201.741 617.634C199.994 620.857 199.8 624.971 199.469 628.609L199.435 628.984C199.015 633.424 198.643 637.879 198.415 642.333C197.983 650.787 197.777 659.229 197.803 667.694C197.83 676.368 198.005 685.032 198.473 693.694L198.6 696.015C199.027 703.542 199.743 711.938 203.32 718.518C204.62 720.911 208.157 720.207 208.91 717.788C211.377 709.867 210.11 700.474 209.477 692.361L208.986 686.031C208.499 679.699 208.035 673.366 207.667 667.027C207.163 658.355 206.747 649.675 206.347 640.998C206.216 638.18 206.076 635.361 205.927 632.543L205.699 628.317C205.504 624.781 205.52 620.902 204.052 617.634ZM481.473 628.861L480.38 627.806C477.027 624.525 472.79 619.472 467.833 619.786C465.857 619.911 464.597 621.551 465.007 623.496C465.883 627.652 470.123 629.809 473.176 632.347C476.52 635.126 479.672 638.096 482.818 641.095C485.608 643.755 488.292 646.489 490.912 649.31L491.891 650.371C492.83 651.396 499.516 657.443 498.793 659.012L498.754 659.082C498.553 659.382 498.888 659.795 499.222 659.69C502.109 658.778 501.929 656.303 500.837 653.796C498.74 648.979 495.067 644.523 491.859 640.41C488.66 636.306 485.198 632.485 481.473 628.861ZM193.589 508.059C195.822 502.783 204.047 502.893 208.716 503.209C220.475 504.003 233.198 506.978 243.661 512.473C254.508 518.17 261.815 527.299 268.353 537.393L268.658 537.867C275.031 547.771 281.168 559.494 291.146 566.304C296.228 569.773 302.163 572.941 308.329 574.313C308.752 575.057 309.438 575.647 310.337 575.861L310.755 575.956C312.512 576.344 315.24 576.773 317.597 576.516C317.581 577.669 317.593 578.813 317.564 579.905C317.481 583.035 317.446 586.178 317.446 589.309C317.444 595.871 317.797 602.445 317.523 609.006C317.281 614.809 316.461 620.873 313.674 626.06C311.63 629.866 308.932 632.385 305.676 634.789C297.665 629.908 288.607 626.932 279.413 624.695C268.294 621.989 256.91 620.184 246.044 616.515C240.814 614.749 235.786 612.438 231.231 609.299C226.396 605.965 222.704 601.455 218.904 597.044L218.31 596.359C214.432 591.912 210.201 587.657 204.721 585.247C200.002 583.17 193.782 582.8 189.655 579.587C187.498 577.906 187.317 575.466 187.09 572.968C189.733 573.345 192.531 572.74 195.165 572.431L196.529 572.271C199.02 571.975 201.453 571.65 203.905 571.016C204.36 570.899 204.36 570.212 203.905 570.095C201.007 569.347 198.135 569.028 195.165 568.68L194.467 568.593C191.779 568.24 188.954 567.709 186.317 568.3C185.844 566.5 185.161 564.782 184.203 563.062C182.858 560.644 180.312 557.903 179.968 555.08C179.866 554.236 180.062 553.242 180.46 552.496L180.597 552.242C180.764 551.942 180.962 551.64 181.252 551.453C181.284 551.491 181.352 551.533 181.499 551.58C183.528 552.219 185.298 551.226 186.237 549.695C190.225 550.19 194.577 550.023 198.317 550.189L202.098 550.371C206.138 550.557 210.362 550.638 214.159 549.822C214.689 549.708 214.849 548.826 214.319 548.599C209.651 546.603 203.989 545.966 198.992 545.2C196.201 544.771 193.39 544.445 190.591 544.067C188.727 543.816 186.749 543.401 184.818 543.301C179.976 537.275 182.585 527.768 189.323 525.174C191.778 526.252 193.985 525.625 196.666 525.394C199.343 525.165 202.026 525.009 204.714 525.021C210.099 525.045 215.806 526.461 221.139 525.851C222.006 525.751 222.812 524.597 221.95 523.893C217.867 520.562 212.017 519.476 206.835 518.767L205.761 518.623C204.024 518.395 201.911 518.063 199.72 517.865C199.224 516.899 198.335 516.168 197 515.987C196.603 515.932 196.204 515.9 195.805 515.866L195.812 515.827C192.554 515.671 192.696 510.17 193.589 508.059ZM416.58 610.968C416.637 611.057 416.7 611.142 416.767 611.223L416.871 611.343L416.335 611.125L416.58 610.968ZM136.751 496.269C150.46 494.796 164.19 495.107 177.94 495.502C179.04 499.099 182.868 502.164 186.577 502.279C183.672 506.7 183.372 512.683 185.409 517.372C181.084 519.093 177.358 522.185 175.096 526.589C171.959 532.694 172.37 539.487 175.47 545.13C172.824 547.524 171.263 551.414 171.419 555.08C171.594 559.167 174.03 562.659 176.055 566.044C178.243 569.704 178.317 572.927 178.989 577.026C179.972 583.026 184.019 586.664 189.227 588.937L188.95 590.026C187.607 595.25 185.937 600.763 182.1 604.584C177.164 609.499 169.507 609.453 162.985 609.765L162.67 609.78C156.699 610.079 150.73 610.429 144.76 610.767L140.283 611.017C133.41 611.395 126.809 611.441 121.198 606.897C112.038 599.482 105.758 587.209 101.783 576.344C93.4403 553.539 93.3404 528.513 97.1699 504.762C110.013 500.623 123.339 497.709 136.751 496.269ZM250.764 534.104L250.663 534.111C247.84 534.433 245.901 536.718 245.21 539.429C244.207 543.37 244.699 546.932 242.286 550.489C239.803 554.147 238.276 557.075 237.915 561.594C237.767 563.453 237.835 565.308 237.421 567.128L237.121 568.403C236.802 569.763 236.541 571.072 236.7 572.532C236.844 573.863 237.493 574.9 238.829 575.327C243.181 576.719 246.541 573.513 247.665 569.457C248.637 565.955 247.34 561.781 248.71 558.491C249.469 556.668 250.87 555.143 251.661 553.307C252.444 551.488 252.838 549.587 252.964 547.61C253.202 543.869 249.893 539.375 251.74 535.986C252.133 535.262 251.687 534.081 250.764 534.104ZM308.575 495.503C305.627 494.904 302.284 493.532 299.377 494.672C297.883 495.26 297.145 497.081 298.408 498.347C300.599 500.544 303.784 500.666 306.736 501.184L306.996 501.231C310.486 501.876 313.982 502.489 317.484 503.069C324.071 504.16 330.673 505.124 337.299 505.944C344.104 506.786 350.928 507.535 357.762 508.099L360.408 508.316C366.18 508.778 372.187 509.126 377.851 508.242C378.674 508.114 378.542 506.916 377.851 506.706C371.646 504.828 364.839 504.324 358.424 503.53C351.604 502.684 344.795 501.79 338.005 500.73C331.224 499.671 324.453 498.535 317.707 497.279C314.658 496.712 311.614 496.12 308.575 495.503ZM202.231 489.474C204.818 488.559 207.663 487.202 210.465 487.656C215.298 488.439 219.599 493.147 223.425 496.247L221.504 495.874C211.676 493.985 198.661 491.95 190.411 498.198C190.39 498.162 190.373 498.126 190.349 498.09C189.683 497.079 188.912 496.29 188.07 495.425C187.989 495.349 187.911 495.27 187.835 495.191L187.381 494.707L188.42 494.347C190.646 493.56 193.283 492.544 193.699 492.396L193.728 492.386C196.566 491.425 199.407 490.475 202.231 489.474ZM282.982 283.503C283.386 278.302 275.29 278.345 274.889 283.503C274.014 294.764 276.549 305.919 282.004 315.791C282.044 315.863 282.089 315.927 282.131 315.995C278.719 317.77 275.268 319.473 271.74 320.996C267.228 322.943 262.63 324.717 257.95 326.222C253.717 327.584 248.502 328.121 244.943 330.955C237.438 336.93 240.257 349.33 241.701 357.368L241.926 358.637C242.645 362.773 243.165 367.017 241.421 370.986C239.559 375.226 235.792 378.371 232.433 381.405L231.754 382.02C228.778 384.731 225.377 388.026 223.193 391.701C221.2 387.581 218.484 384.215 215.611 380.424C213.562 377.72 215.021 376.828 216.493 374.186C217.91 371.643 218.602 368.932 218.159 366.03C217.341 360.672 213.058 356.802 208.795 353.894C203.761 350.461 198.141 347.918 192.937 344.725C182.242 338.164 171.827 330.662 162.444 322.331C162.185 322.101 161.736 322.402 161.944 322.717C169.356 333.99 178.047 343.731 188.729 351.999C193.06 355.351 197.61 358.132 202.19 361.055L203.507 361.9C205.346 363.091 207.64 364.683 208.472 366.711C209.308 368.751 207.524 370.291 206.564 371.98C203.514 377.345 204.985 382.351 208.601 386.901L208.769 387.111C212.362 391.538 215.085 395.655 216.387 401.311C219.186 413.46 215.288 426.115 211.208 437.52L211.047 437.97C208.84 444.118 206.494 450.22 204.577 456.467L204.049 458.194C202.312 463.941 200.889 469.609 202.838 475.517C203.501 477.527 206.242 478.002 207.381 476.111C211.397 469.441 212.398 461.415 214.916 454.082C217.37 446.935 220.187 439.918 222.557 432.742C225.609 423.503 227.652 413.557 226.543 403.866C226.576 403.81 226.612 403.757 226.639 403.697L227.416 401.998C229.534 397.397 231.58 393.379 235.433 389.712C239.451 385.886 243.813 382.5 246.975 377.869C253.843 367.81 249.595 356.62 248.766 345.622L248.671 344.273C248.52 341.99 248.438 338.886 249.93 337.306C251.608 335.526 255.543 335.072 257.77 334.285C263.524 332.249 269.195 329.876 274.596 327.027C279.738 324.316 284.718 321.32 289.355 317.81L291.705 316.043C295.413 313.245 299.258 310.19 301.744 306.382C302.031 305.944 301.543 305.236 301.024 305.446C296.875 307.13 293.084 309.807 289.202 312.137C289.142 311.995 289.072 311.852 288.992 311.708C284.19 303.017 282.214 293.388 282.982 283.503ZM150.45 343.047C148.797 338.515 141.263 338.865 141.564 344.25C141.794 348.387 143.551 352.121 145.157 355.878L145.329 356.28C146.987 360.194 148.903 363.869 151.194 367.456C155.574 374.313 160.704 380.677 166.183 386.682C171.15 392.127 177.67 395.457 185.183 394.904C188.348 394.67 191.543 393.865 194.317 392.284C197.612 390.406 201.19 384.766 205.393 386.132C205.799 386.264 206.179 385.668 205.827 385.386C200.975 381.479 195.467 387.537 190.821 388.997C183.821 391.196 176.637 388.765 172.132 383.106C167.427 377.198 163.098 370.584 159.144 364.151C157.136 360.885 155.304 357.495 153.722 354.002C152.125 350.475 151.762 346.643 150.45 343.047ZM161.734 315.154C161.938 314.528 161.161 313.933 160.611 314.291C157.422 316.366 154.659 319.108 151.718 321.512C148.455 324.179 145.168 326.791 141.83 329.364C136.964 333.114 142.607 340.019 146.891 335.922C152.753 330.317 159.172 322.988 161.734 315.154ZM179.24 293.217C177.945 288.223 170.283 290.282 171.4 295.218L171.436 295.369C173.551 303.522 170.539 311.822 164.11 317.107L163.873 317.3C159.806 320.554 165.569 326.244 169.596 323.02C178.388 315.985 182.045 304.034 179.24 293.217Z" fill="#083949"/>
<path fill-rule="evenodd" clip-rule="evenodd" d="M120.242 107.104C120.324 106.572 120.331 106.106 120.32 105.567C120.182 99.2251 138.55 72.1257 143.802 68.567C156.734 59.8043 172.831 54.8434 187.38 50.4452C233.564 35.199 269.628 53.6118 302.077 86.2454C321.235 104.14 339.463 124.129 349.08 148.901C367.999 196.157 339.641 250.042 296.515 272.616C293.035 274.5 286.408 270.341 283.094 272.616C265.267 282.916 247.168 292.426 227.302 296.909C190.138 305.404 143.463 301.355 121.562 265.973C106.706 240.861 110.653 210.42 111.816 182.552C113.543 158.404 116.562 131.148 120.242 107.104Z" fill="white"/>
<path fill-rule="evenodd" clip-rule="evenodd" d="M319.015 36.6191C294.937 14.1108 259.35 3.20147 226.812 5.10946C209.19 6.143 192.206 10.5587 176.279 18.1451C171.882 20.2394 167.585 22.649 163.559 25.4347C162.492 26.1725 161.375 26.8358 160.209 27.4029C157.802 28.5736 155.441 29.8214 153.139 31.1555C138.819 39.4511 127.75 52.0162 120.664 66.9211C117.282 74.035 114.613 81.5368 113.101 89.2662L112.858 90.5386C112.087 94.4173 110.562 99.5275 112.491 103.157C112.648 103.453 112.826 103.735 113.023 104.002C115.033 106.737 117.979 110.245 117.353 113.581L116.204 119.701C116.014 120.721 115.825 121.741 115.639 122.761C114.531 128.839 113.511 134.911 112.695 141.037C110.988 153.794 109.445 166.577 108.085 179.381C107.11 188.538 106.197 197.704 105.31 206.868L104.78 212.366C103.869 221.831 103.155 231.378 103.775 240.884C104.55 252.749 107.717 263.749 113.663 273.206C115.893 276.753 116.933 281.247 115.91 285.31C115.065 288.666 113.964 291.952 112.792 295.21C112.244 296.49 111.695 297.771 111.152 299.055L109.723 302.456L108.608 304.685C106.316 309.288 102.451 313.056 99.3067 317.124C97.6917 319.214 96.656 321.703 96.5595 324.581C96.3895 329.769 99.0822 335.263 103.631 337.908C106.644 339.662 109.717 339.775 112.711 339.056C115.6 338.363 118.616 338.107 121.579 338.323C125.922 338.639 130.396 339.657 134.452 341.242C135.932 341.821 137.503 342.223 139.139 342.416C145.299 343.148 151.147 341.423 156.798 339.155L157.192 338.996C157.542 338.861 157.908 338.771 158.282 338.746C164.59 338.315 170.823 335.763 175.3 331.34C176.802 329.864 178.101 328.178 179.148 326.288C182.553 320.13 183.382 312.718 180.831 306.338C180.437 305.353 181.154 304.215 182.215 304.243C192.914 304.548 203.632 304.002 214.303 303.299L216.819 303.128C223.725 302.631 233.909 301.461 234.103 292.902C234.131 291.807 233.001 290.984 231.968 291.276C228.044 292.384 224.189 294.125 220.123 294.751C214.806 295.574 209.298 295.662 203.926 295.961L202.381 296.047C191.548 296.64 180.327 297.001 169.669 294.853C161.714 293.255 153.425 290.344 146.136 286.74C139.139 283.273 132.781 278.738 127.654 272.815C116.36 259.787 114.864 241.408 115.415 224.925C116.081 205.24 118.394 185.583 119.699 165.925L120.289 157.094C120.776 149.729 121.221 142.354 121.405 134.986C121.541 129.608 121.454 124.216 121.427 118.837C121.413 116.151 121.446 113.452 121.385 110.766C121.367 109.98 121.311 109.204 121.243 108.431C121.129 107.143 121.855 105.954 122.704 104.979C123.409 104.165 124.233 103.419 125.212 102.97C126.735 102.273 127.718 101.294 128.973 99.5873C130.361 97.7038 131.931 95.9631 133.611 94.3312C137.187 90.8633 141.274 88.0279 145.592 85.5589C154.52 80.453 164.298 77.0396 174.157 74.2382C185.015 71.1571 196.174 69.1524 207.285 66.9892C215.164 65.4549 223.239 68.5894 228.237 74.8718C230.001 77.0887 231.798 79.2779 233.627 81.439C248.227 98.6829 264.967 114.056 282.905 127.765C285.563 129.8 288.246 131.812 290.957 133.788C292.966 135.251 294.706 137.052 296.073 139.127C300.343 145.608 304.653 152.062 309.02 158.478L311.197 161.668L311.231 161.729C311.531 162.185 311.817 162.641 312.102 163.096C312.707 164.062 313.387 164.993 314.108 165.898C314.86 166.998 314.468 168.478 313.445 169.333C313.328 169.431 313.216 169.53 313.108 169.631C311.762 170.901 311.987 172.922 313.108 174.214C315.202 176.63 318.001 175.826 320.795 174.439C324.591 172.554 329.045 172.032 331.961 175.109C334.026 177.288 335.691 180.016 336.751 182.338C339.443 188.248 340.524 195.373 339.307 201.772C338.193 207.62 335.187 212.672 330.189 215.841C330.014 215.948 329.826 216.063 329.644 216.164C329.64 216.166 329.636 216.172 329.634 216.175C329.629 216.183 329.619 216.177 329.611 216.182C329.445 216.288 329.273 216.388 329.101 216.48C326.755 217.772 324.178 218.534 321.506 218.717C319.977 218.826 318.378 218.744 316.848 218.928C315.277 219.111 313.985 219.832 312.476 220.213C310.81 220.641 309.736 222.879 310.783 224.381C311.637 225.607 311.601 227.288 310.709 228.487C309.638 229.926 308.658 231.415 307.743 232.853C306.262 235.191 304.914 237.643 303.668 240.148C303.052 241.387 302.332 242.571 301.515 243.687C300.579 244.965 299.671 246.26 298.781 247.575C291.54 258.305 285.998 270.259 282.591 282.749C279.219 295.104 277.111 308.982 280.232 321.596C283.108 333.196 291.506 342.804 303.935 343.423C308.79 343.662 313.773 344.255 318.388 345.777C321.937 346.948 325.652 347.572 329.124 347.686C330.097 347.718 331.088 347.701 332.083 347.629C339.214 347.116 346.9 346.125 353.984 347.094C354.931 347.223 355.86 347.315 356.761 347.369C365.357 347.881 374.883 348.194 382.852 351.456C382.9 351.476 382.947 351.495 382.995 351.515C390.903 354.71 400.314 354.315 407.555 349.536C414.811 344.749 418.503 336.154 416.286 327.627C414.246 319.767 407.834 314.001 401.81 309.036L400.619 308.061C394.66 303.197 388.642 298.49 384.817 291.637C380.758 284.368 379.276 275.923 378.874 267.695C378.004 249.581 381.69 231.63 382.811 213.611C383.967 195 383.321 176.334 380.785 157.86C375.855 121.972 362.882 86.7903 339.409 58.8159C336.347 55.166 333.091 51.6704 329.672 48.3375C328.927 47.6117 328.233 46.8356 327.589 46.0194C324.932 42.6516 322.083 39.4863 319.015 36.6191ZM6.79083 241.53C6.66165 241.537 6.53925 241.544 6.42365 241.591C6.34613 241.624 6.28085 241.676 6.22049 241.733L5.6485 242.305C5.44452 242.509 5.45813 242.822 5.6485 243.026C5.8154 243.211 6.11716 243.217 6.31369 243.073L6.36926 243.026L6.96158 242.433C7.02637 242.363 7.08185 242.287 7.11041 242.19C7.1376 242.094 7.1376 241.986 7.14441 241.884C7.15118 241.7 6.97443 241.53 6.79083 241.53ZM325.817 185.977C320.364 184.324 313.822 188.255 310.572 192.403C308.94 194.483 308.478 197.332 310.572 199.379C312.354 201.12 315.835 201.439 317.555 199.379C319.507 197.033 321.098 193.782 323.886 192.28C326.912 190.648 330.964 191.056 331.678 195.033C331.801 195.707 332.766 195.482 332.807 194.878C333.072 190.852 329.543 187.098 325.817 185.977Z" fill="#083949"/>
<path fill-rule="evenodd" clip-rule="evenodd" d="M181.94 250.994C186.511 249.129 190.589 246.019 193.571 242.045C194.607 240.664 194.876 239.205 194.659 237.871C194.414 236.371 193.527 235.011 192.316 234.099C191.102 233.185 189.583 232.733 188.115 232.963C186.839 233.163 185.569 233.862 184.564 235.311L184.354 235.6C182.582 237.998 180.272 239.966 177.64 241.234C175.103 242.457 172.265 243.027 169.329 242.696C163.737 242.064 159.883 239.04 155.787 234.933C155.652 234.796 155.517 234.657 155.383 234.518C154.63 233.737 154.022 232.705 152.993 232.361C152.442 232.177 151.818 232.187 151.246 232.387C150.695 232.579 150.202 232.944 149.872 233.429C149.558 233.89 149.38 234.46 149.437 235.115C149.812 239.371 152.037 243.169 155.198 246.152C158.708 249.464 163.362 251.756 167.742 252.559C172.569 253.445 177.486 252.81 181.94 250.994ZM165.466 185.337C160.331 188.458 152.507 195.735 158.031 203.473C164.533 210.295 173.894 202.473 178.507 198.935C182.785 196.193 187.591 203.245 183.622 206.447C150.288 231.126 136.76 186.153 162.869 181.667C165.743 181.173 166.811 184.371 165.466 185.337ZM225.201 156.628C224.634 149.586 213.909 147.987 212.842 154.955C211.887 161.197 213.011 166.931 215.823 172.551C218.51 177.92 225.262 175.416 225.773 170.527C226.457 163.973 225.554 161.008 225.201 156.628ZM143.562 153.51C142.067 151.552 139.908 150.215 137.321 150.971C129.24 153.332 131.622 164.805 134.46 170.39C136.002 173.423 140.987 174.192 143.24 171.521C146.755 167.353 148.516 159.206 144.565 154.755C144.212 154.357 143.885 153.933 143.562 153.51ZM215.937 125.815L214.66 125.591C210.711 124.908 205.801 124.252 203.007 127.427C201.526 129.111 201.016 132.24 203.007 133.851C206.511 136.687 210.384 135.588 214.582 135.828C218.041 136.026 221.366 136.599 224.699 137.552C232.01 139.641 237.967 143.456 244.211 147.644C245.031 148.194 245.867 147.146 245.476 146.38C241.872 139.32 234.886 133.52 227.889 129.985C224.155 128.098 220.068 126.533 215.937 125.815ZM150.929 122.652L149.952 122.852C139.952 124.942 127.139 128.993 121.46 138.155C120.742 139.314 119.796 140.893 120.645 141.958L120.7 142.027C120.788 142.141 120.864 142.283 121.079 142.423C121.383 142.621 121.771 142.606 122.123 142.514C124.431 141.909 126.257 141.075 128.025 140.211L129.941 139.266C132.165 138.176 134.409 137.125 136.786 136.35C141.86 134.695 147.079 133.529 152.379 132.906C153.528 132.771 154.634 132.384 155.507 131.719C156.335 131.089 156.968 130.215 157.256 129.055C157.63 127.553 157.523 126.415 156.717 125.06C156.111 124.043 155.244 123.337 154.248 122.932C153.233 122.519 152.078 122.422 150.929 122.652Z" fill="#083949"/>
<path fill-rule="evenodd" clip-rule="evenodd" d="M227.628 259.384C227.535 257.988 227.141 256.635 226.526 255.379C220.688 243.461 209.189 234.745 196.049 231.453C185.89 228.915 175.229 228.996 164.873 230.004C159.447 230.528 153.628 230.957 148.515 232.972C144.148 234.694 140.59 237.947 137.914 241.767C134.73 246.293 132.563 251.473 131.042 256.782C130.614 258.279 130.52 259.866 130.926 261.369C131.742 264.383 133.234 266.976 136.21 268.996C139.452 271.198 143.255 272.235 147.107 272.684C147.99 272.787 148.89 272.634 149.662 272.194C156.373 268.352 161.097 259.273 169.568 260.501C174.55 261.225 178.41 265.603 181.75 270.101C184.875 274.31 189.525 277.2 194.764 277.01C204.244 276.667 213.498 273.864 221.755 269.211C225.354 267.183 227.9 263.506 227.628 259.384ZM120.626 247.511C121.781 244.272 123.234 241.134 124.958 238.179C130.655 228.405 139.402 220.617 149.784 216.165C174.346 205.648 206.126 213.062 225.962 230.31C232.529 236.024 239.166 244.339 241.455 253.331C241.588 253.851 242.002 254.234 242.481 254.477C243.031 254.757 243.709 254.859 244.232 254.53C258.282 245.706 272.671 237.127 283.981 224.878C292.367 215.791 298.2 205.036 301.772 193.219C302.064 192.246 303.633 192.389 303.585 193.465C303.579 193.58 304.073 193.991 304.172 194.048C304.317 194.131 304.434 194.272 304.455 194.444C306.376 208.8 308.78 224.02 306.567 238.451C305.242 247.062 301.331 253.366 296.102 260.173C290.5 267.469 284.157 274.255 277.672 280.764C273.557 284.895 269.259 289.66 264.22 292.689C258.36 296.208 251.712 298.884 245.458 301.599C239.095 304.369 232.637 306.929 226.057 309.148C212.903 313.599 199.308 316.676 185.476 318.024C174.4 319.099 161.743 320.271 151.129 316.104C142.994 312.912 136.427 307.14 131.219 300.197C125.549 292.634 121.066 284.02 118.588 274.936C116.013 265.5 120.084 249.032 120.626 247.511Z" fill="#083949"/>
<path fill-rule="evenodd" clip-rule="evenodd" d="M107.481 174.161C107.481 174.386 107.521 174.609 107.599 174.819C109.31 179.385 111.776 184.094 114.766 188.115C115.506 189.11 116.377 190.004 117.364 190.755C130.841 201.013 143.771 194.957 150.861 180.076C151.375 178.999 151.76 177.859 151.935 176.679C153.596 165.446 146.728 153.617 139.472 145.408C128.942 134.854 112.059 139.665 106.139 151.558C105.576 152.689 105.245 153.92 105.081 155.173C104.941 156.247 104.846 157.32 104.789 158.391C104.893 163.78 105.531 168.402 107.365 173.501C107.441 173.713 107.481 173.936 107.481 174.161ZM247.753 166.696C247.092 164.877 246.044 163.175 244.713 161.769C225.264 141.218 191.928 141.2 192.808 174.966C196.82 218.239 263.036 208.748 247.753 166.696ZM100.019 146.093C101.04 145.457 101.78 144.483 102.45 143.484C102.688 143.128 102.935 142.776 103.188 142.429C103.522 141.973 103.78 141.729 103.997 141.207C104.423 140.188 105.675 139.403 106.466 138.633C121.127 124.345 145.362 133.026 154.752 148.352C155.021 148.792 155.31 149.205 155.627 149.611C158.259 152.986 162.288 155.358 166.56 155.102C168.375 154.993 170.211 154.964 172.043 155.023C180.866 155.307 190.088 150.701 196.931 145.124C208.525 135.675 226.136 136.339 238.825 143.434C247.974 147.934 254.328 156.715 262.556 162.845C265 164.665 267.99 165.543 271.035 165.656C293.759 166.497 317.807 162.132 339.929 167.783C350.026 169.882 350.079 173.614 347.511 175.592C343.102 178.987 336.845 173.777 331.356 172.864C312.946 169.805 292.522 172.893 273.775 172.526C270.265 172.457 267.005 174.455 264.26 176.643C260.464 179.669 256.17 183.347 254.608 187.945C243.48 220.708 192.51 214.318 185.768 182.292C185.068 178.964 184.237 175.548 182.07 172.927C180.646 171.206 179.032 169.613 177.151 168.265C175.77 167.275 174.095 166.76 172.469 166.265C170.848 165.771 169.24 165.17 167.562 165.412C167.443 165.43 167.323 165.449 167.202 165.47C162.915 166.219 160.878 170.643 159.757 174.848C148.786 215.987 106.711 209.512 98.0508 169.978C97.859 169.102 97.5777 168.496 97.1687 167.698C96.9511 167.274 96.6388 166.583 96.3177 166.23C93.2274 162.837 86.9447 161.261 88.0105 155.179C88.9064 149.436 95.5031 148.905 100.019 146.093Z" fill="#083949"/>
</g>
</svg>
