<svg width="102" height="60" viewBox="0 0 102 60" fill="none" xmlns="http://www.w3.org/2000/svg">
<path d="M25.0506 60C20.1447 60 15.8466 58.7844 12.0695 56.3531C8.29232 53.9219 5.34008 50.492 3.21273 46.0203C1.08538 41.5919 0 36.2518 0 30C0 23.835 1.08538 18.4949 3.21273 13.9797C5.34008 9.46455 8.33574 5.99132 12.1129 3.60348C15.89 1.21564 20.2315 0 25.0072 0C29.5224 0 33.5601 1.04198 37.1201 3.16933C40.6802 5.25326 43.0246 8.07525 44.1534 11.5051H43.0246L44.2836 1.34588H63.6903C63.3864 3.90738 63.1693 6.5123 62.9957 9.11722C62.8654 11.7656 62.7786 14.3271 62.7786 16.8886V58.6107H42.8075L42.6773 48.9291H43.9363C42.8075 52.2287 40.4631 54.9204 36.903 56.9175C33.3864 58.958 29.4356 60 25.0506 60ZM31.6064 44.9783C34.9928 44.9783 37.7279 43.8061 39.8553 41.4182C41.9392 39.0304 43.0246 35.2533 43.0246 29.9566C43.0246 24.7033 41.9826 20.8828 39.8553 18.4949C37.7713 16.1071 34.9928 14.9349 31.6064 14.9349C28.22 14.9349 25.4848 16.1071 23.3574 18.4949C21.2735 20.8828 20.1881 24.6599 20.1881 29.9566C20.1881 35.2098 21.2301 39.0304 23.2706 41.4182C25.398 43.8061 28.1331 44.9783 31.6064 44.9783Z" fill="#073949"/>
<path d="M42.8944 58.6541V16.932C42.8944 14.3705 42.8076 11.7656 42.6773 9.16065C42.5471 6.51231 42.2866 3.95081 41.9827 1.3893H61.3893L62.5181 11.3314H61.2591C63.1259 7.81477 65.7743 5.03619 69.2041 3.03908C72.6339 1.04198 76.5413 0.0434265 80.9696 0.0434265C87.7424 0.0434265 92.7786 2.04054 96.0782 6.03475C99.3777 10.029 101.028 16.1939 101.028 24.5297V58.6975H80.9696V25.4414C80.9696 21.7511 80.3184 19.1896 79.0594 17.7135C77.8003 16.2374 75.9769 15.4993 73.6324 15.4993C70.4197 15.4993 67.8148 16.4978 65.8611 18.5384C63.9074 20.5789 62.9089 23.314 62.9089 26.7873V58.6975H42.8944V58.6541Z" fill="#215B5C"/>
</svg>
