<svg width="85" height="50" viewBox="0 0 85 50" fill="none" xmlns="http://www.w3.org/2000/svg">
<path d="M20.8755 50C16.7873 50 13.2055 48.987 10.0579 46.9609C6.91027 44.9349 4.45007 42.0767 2.67728 38.3502C0.904484 34.6599 0 30.2098 0 25C0 19.8625 0.904484 15.4124 2.67728 11.6498C4.45007 7.88712 6.94645 4.99277 10.0941 3.0029C13.2417 1.01303 16.8596 0 20.8394 0C24.602 0 27.9667 0.868313 30.9334 2.64111C33.9001 4.37772 35.8538 6.72938 36.7945 9.58755H35.8538L36.903 1.12157H53.0752C52.822 3.25615 52.6411 5.42692 52.4964 7.59768C52.3878 9.80463 52.3155 11.9392 52.3155 14.0738V48.8423H35.6729L35.5644 40.7742H36.6136C35.6729 43.5239 33.7192 45.767 30.7525 47.4313C27.822 49.1317 24.5297 50 20.8755 50ZM26.3386 37.4819C29.1606 37.4819 31.4399 36.5051 33.2127 34.5152C34.9493 32.5253 35.8538 29.3777 35.8538 24.9638C35.8538 20.5861 34.9855 17.4023 33.2127 15.4124C31.4761 13.4226 29.1606 12.4457 26.3386 12.4457C23.5166 12.4457 21.2373 13.4226 19.4645 15.4124C17.7279 17.4023 16.8234 20.5499 16.8234 24.9638C16.8234 29.3415 17.6917 32.5253 19.3922 34.5152C21.165 36.5051 23.4443 37.4819 26.3386 37.4819Z" fill="#083949"/>
<path d="M35.7454 48.8784V14.1099C35.7454 11.9753 35.673 9.80455 35.5645 7.63379C35.4559 5.42684 35.2389 3.29225 34.9856 1.15767H51.1578L52.0985 9.44276H51.0493C52.605 6.51222 54.8119 4.19674 57.6701 2.53248C60.5283 0.868227 63.7844 0.0361023 67.4747 0.0361023C73.1187 0.0361023 77.3155 1.70036 80.0652 5.02887C82.8148 8.35738 84.1896 13.4949 84.1896 20.4413V48.9145H67.4747V21.2011C67.4747 18.1258 66.932 15.9912 65.8828 14.7611C64.8336 13.531 63.3141 12.916 61.3604 12.916C58.6831 12.916 56.5124 13.7481 54.8843 15.4485C53.2562 17.149 52.4241 19.4283 52.4241 22.3226V48.9145H35.7454V48.8784Z" fill="#00BBBA"/>
</svg>
